<?xml version="1.0" encoding="UTF-8" standalone="no"?>
<svg
   xmlns:dc="http://purl.org/dc/elements/1.1/"
   xmlns:cc="http://creativecommons.org/ns#"
   xmlns:rdf="http://www.w3.org/1999/02/22-rdf-syntax-ns#"
   xmlns:svg="http://www.w3.org/2000/svg"
   xmlns="http://www.w3.org/2000/svg"
   xmlns:sodipodi="http://sodipodi.sourceforge.net/DTD/sodipodi-0.dtd"
   xmlns:inkscape="http://www.inkscape.org/namespaces/inkscape"
   sodipodi:docname="pgas-gaspi-addressspace.svg"
   inkscape:version="1.0 (4035a4fb49, 2020-05-01)"
   id="svg8"
   version="1.1"
   viewBox="0 0 81.790459 52.751099"
   height="52.751099mm"
   width="81.790459mm">
  <defs
     id="defs2">
    <clipPath
       clipPathUnits="userSpaceOnUse"
       id="clipPath867">
      <path
         d="M 0,0 H 460.184 V 264.307 H 0 Z"
         id="path865" />
    </clipPath>
  </defs>
  <sodipodi:namedview
     fit-margin-bottom="0"
     fit-margin-right="0"
     fit-margin-left="0"
     fit-margin-top="0"
     inkscape:window-maximized="1"
     inkscape:window-y="-8"
     inkscape:window-x="-8"
     inkscape:window-height="1017"
     inkscape:window-width="1920"
     showgrid="false"
     inkscape:document-rotation="0"
     inkscape:current-layer="g869"
     inkscape:document-units="mm"
     inkscape:cy="101.05879"
     inkscape:cx="58.397068"
     inkscape:zoom="1.9275568"
     inkscape:pageshadow="2"
     inkscape:pageopacity="0.0"
     borderopacity="1.0"
     bordercolor="#666666"
     pagecolor="#ffffff"
     id="base" />
  <metadata
     id="metadata5">
    <rdf:RDF>
      <cc:Work
         rdf:about="">
        <dc:format>image/svg+xml</dc:format>
        <dc:type
           rdf:resource="http://purl.org/dc/dcmitype/StillImage" />
        <dc:title></dc:title>
      </cc:Work>
    </rdf:RDF>
  </metadata>
  <g
     transform="translate(-53.889572,-69.453554)"
     id="layer1"
     inkscape:groupmode="layer"
     inkscape:label="Ebene 1">
    <g
       id="g857"
       transform="matrix(0.20488627,0,0,-0.20488627,47.442262,123.60644)">
      <g
         id="g861">
        <g
           id="g869"
           transform="translate(31.667,235.761)">
          <g
             id="g875">
            <g
               id="g877">
              <g
                 id="g879"
                 transform="translate(2.14474,-2.14474)">
                <path
                   d="m 0,-166.09575 v 133.76384 c 0,2.20094 1.78416,3.98511 3.9851,3.98511 h 48.72341 c 2.20094,0 3.98511,-1.78417 3.98511,-3.98511 v -133.76384 c 0,-2.20094 -1.78417,-3.98511 -3.98511,-3.98511 H 3.9851 c -2.20094,0 -3.9851,1.78417 -3.9851,3.98511 z"
                   style="fill:#808080;fill-opacity:0.25;fill-rule:nonzero;stroke:none"
                   id="path881" />
              </g>
            </g>
          </g>
          <g
             id="g883">
            <path
               d="m 0,-166.09575 v 133.76384 c 0,2.20094 1.78416,3.98511 3.9851,3.98511 h 48.72341 c 2.20094,0 3.98511,-1.78417 3.98511,-3.98511 v -133.76384 c 0,-2.20094 -1.78417,-3.98511 -3.98511,-3.98511 H 3.9851 c -2.20094,0 -3.9851,1.78417 -3.9851,3.98511 z"
               style="fill:#ffffff;fill-opacity:1;fill-rule:nonzero;stroke:#000000;stroke-width:0.3985;stroke-linecap:butt;stroke-linejoin:miter;stroke-miterlimit:10;stroke-dasharray:none;stroke-opacity:1"
               id="path885" />
          </g>
          <g
             id="g887">
            <g
               id="g889">
              <g
                 id="g891"
                 transform="translate(2.14474,-2.14474)">
                <path
                   d="m 85.04042,-166.09575 v 133.76384 c 0,2.20094 1.78416,3.98511 3.98511,3.98511 h 48.7234 c 2.20094,0 3.98511,-1.78417 3.98511,-3.98511 v -133.76384 c 0,-2.20094 -1.78417,-3.98511 -3.98511,-3.98511 h -48.7234 c -2.20095,0 -3.98511,1.78417 -3.98511,3.98511 z"
                   style="fill:#808080;fill-opacity:0.25;fill-rule:nonzero;stroke:none"
                   id="path893" />
              </g>
            </g>
          </g>
          <g
             id="g895">
            <path
               d="m 85.04042,-166.09575 v 133.76384 c 0,2.20094 1.78416,3.98511 3.98511,3.98511 h 48.7234 c 2.20094,0 3.98511,-1.78417 3.98511,-3.98511 v -133.76384 c 0,-2.20094 -1.78417,-3.98511 -3.98511,-3.98511 h -48.7234 c -2.20095,0 -3.98511,1.78417 -3.98511,3.98511 z"
               style="fill:#ffffff;fill-opacity:1;fill-rule:nonzero;stroke:#000000;stroke-width:0.3985;stroke-linecap:butt;stroke-linejoin:miter;stroke-miterlimit:10;stroke-dasharray:none;stroke-opacity:1"
               id="path897" />
          </g>
          <g
             id="g899">
            <g
               id="g901">
              <g
                 id="g903"
                 transform="translate(2.14474,-2.14474)">
                <path
                   d="m 170.08086,-166.09575 v 133.76384 c 0,2.20094 1.78416,3.98511 3.9851,3.98511 h 48.72341 c 2.20094,0 3.98511,-1.78417 3.98511,-3.98511 v -133.76384 c 0,-2.20094 -1.78417,-3.98511 -3.98511,-3.98511 h -48.72341 c -2.20094,0 -3.9851,1.78417 -3.9851,3.98511 z"
                   style="fill:#808080;fill-opacity:0.25;fill-rule:nonzero;stroke:none"
                   id="path905" />
              </g>
            </g>
          </g>
          <g
             id="g907">
            <path
               d="m 170.08086,-166.09575 v 133.76384 c 0,2.20094 1.78416,3.98511 3.9851,3.98511 h 48.72341 c 2.20094,0 3.98511,-1.78417 3.98511,-3.98511 v -133.76384 c 0,-2.20094 -1.78417,-3.98511 -3.98511,-3.98511 h -48.72341 c -2.20094,0 -3.9851,1.78417 -3.9851,3.98511 z"
               style="fill:#ffffff;fill-opacity:1;fill-rule:nonzero;stroke:#000000;stroke-width:0.3985;stroke-linecap:butt;stroke-linejoin:miter;stroke-miterlimit:10;stroke-dasharray:none;stroke-opacity:1"
               id="path909" />
          </g>
          <g
             id="g911">
            <g
               id="g913">
              <g
                 id="g915"
                 transform="translate(2.14474,-2.14474)">
                <path
                   d="m 340.16171,-166.09575 v 133.76384 c 0,2.20094 1.78417,3.98511 3.98511,3.98511 h 48.7234 c 2.20095,0 3.98511,-1.78417 3.98511,-3.98511 v -133.76384 c 0,-2.20094 -1.78416,-3.98511 -3.98511,-3.98511 h -48.7234 c -2.20094,0 -3.98511,1.78417 -3.98511,3.98511 z"
                   style="fill:#808080;fill-opacity:0.25;fill-rule:nonzero;stroke:none"
                   id="path917" />
              </g>
            </g>
          </g>
          <g
             id="g919">
            <path
               d="m 340.16171,-166.09575 v 133.76384 c 0,2.20094 1.78417,3.98511 3.98511,3.98511 h 48.7234 c 2.20095,0 3.98511,-1.78417 3.98511,-3.98511 v -133.76384 c 0,-2.20094 -1.78416,-3.98511 -3.98511,-3.98511 h -48.7234 c -2.20094,0 -3.98511,1.78417 -3.98511,3.98511 z"
               style="fill:#ffffff;fill-opacity:1;fill-rule:nonzero;stroke:#000000;stroke-width:0.3985;stroke-linecap:butt;stroke-linejoin:miter;stroke-miterlimit:10;stroke-dasharray:none;stroke-opacity:1"
               id="path921" />
          </g>
          <path
             d="M 0,-70.867 H 56.69362"
             style="fill:none;stroke:#000000;stroke-width:0.3985;stroke-linecap:butt;stroke-linejoin:miter;stroke-miterlimit:10;stroke-dasharray:none;stroke-opacity:1"
             id="path923" />
          <path
             d="m 85.04042,-70.867 h 56.69362"
             style="fill:none;stroke:#000000;stroke-width:0.3985;stroke-linecap:butt;stroke-linejoin:miter;stroke-miterlimit:10;stroke-dasharray:none;stroke-opacity:1"
             id="path941" />
          <path
             d="m 170.08086,-70.867 h 56.69362"
             style="fill:none;stroke:#000000;stroke-width:0.3985;stroke-linecap:butt;stroke-linejoin:miter;stroke-miterlimit:10;stroke-dasharray:none;stroke-opacity:1"
             id="path959" />
          <path
             d="m 340.16171,-70.867 h 56.69362"
             style="fill:none;stroke:#000000;stroke-width:0.3985;stroke-linecap:butt;stroke-linejoin:miter;stroke-miterlimit:10;stroke-dasharray:none;stroke-opacity:1"
             id="path977" />
          <g
             id="g997">
            <g
               id="g999">
              <g
                 id="g1001"
                 transform="translate(2.14474,-2.14474)">
                <path
                   d="m 0,3.9851 v 20.3766 c 0,2.20094 1.78416,3.9851 3.9851,3.9851 h 48.72341 c 2.20094,0 3.98511,-1.78416 3.98511,-3.9851 V 3.9851 C 56.69362,1.78416 54.90945,0 52.70851,0 H 3.9851 C 1.78416,0 0,1.78416 0,3.9851 Z"
                   style="fill:#808080;fill-opacity:0.25;fill-rule:nonzero;stroke:none"
                   id="path1003" />
              </g>
            </g>
          </g>
          <g
             id="g1005">
            <path
               d="m 0,3.9851 v 20.3766 c 0,2.20094 1.78416,3.9851 3.9851,3.9851 h 48.72341 c 2.20094,0 3.98511,-1.78416 3.98511,-3.9851 V 3.9851 C 56.69362,1.78416 54.90945,0 52.70851,0 H 3.9851 C 1.78416,0 0,1.78416 0,3.9851 Z"
               style="fill:#ffffff;fill-opacity:1;fill-rule:nonzero;stroke:#000000;stroke-width:0.3985;stroke-linecap:butt;stroke-linejoin:miter;stroke-miterlimit:10;stroke-dasharray:none;stroke-opacity:1"
               id="path1007" />
          </g>
          <g
             id="g1009">
            <g
               id="g1011">
              <g
                 id="g1013"
                 transform="translate(2.14474,-2.14474)">
                <path
                   d="m 85.04042,3.9851 v 20.3766 c 0,2.20094 1.78416,3.9851 3.98511,3.9851 h 48.7234 c 2.20094,0 3.98511,-1.78416 3.98511,-3.9851 V 3.9851 C 141.73404,1.78416 139.94987,0 137.74893,0 h -48.7234 c -2.20095,0 -3.98511,1.78416 -3.98511,3.9851 z"
                   style="fill:#808080;fill-opacity:0.25;fill-rule:nonzero;stroke:none"
                   id="path1015" />
              </g>
            </g>
          </g>
          <g
             id="g1017">
            <path
               d="m 85.04042,3.9851 v 20.3766 c 0,2.20094 1.78416,3.9851 3.98511,3.9851 h 48.7234 c 2.20094,0 3.98511,-1.78416 3.98511,-3.9851 V 3.9851 C 141.73404,1.78416 139.94987,0 137.74893,0 h -48.7234 c -2.20095,0 -3.98511,1.78416 -3.98511,3.9851 z"
               style="fill:#ffffff;fill-opacity:1;fill-rule:nonzero;stroke:#000000;stroke-width:0.3985;stroke-linecap:butt;stroke-linejoin:miter;stroke-miterlimit:10;stroke-dasharray:none;stroke-opacity:1"
               id="path1019" />
          </g>
          <g
             id="g1021">
            <g
               id="g1023">
              <g
                 id="g1025"
                 transform="translate(2.14474,-2.14474)">
                <path
                   d="m 170.08086,3.9851 v 20.3766 c 0,2.20094 1.78416,3.9851 3.9851,3.9851 h 48.72341 c 2.20094,0 3.98511,-1.78416 3.98511,-3.9851 V 3.9851 C 226.77448,1.78416 224.99031,0 222.78937,0 h -48.72341 c -2.20094,0 -3.9851,1.78416 -3.9851,3.9851 z"
                   style="fill:#808080;fill-opacity:0.25;fill-rule:nonzero;stroke:none"
                   id="path1027" />
              </g>
            </g>
          </g>
          <g
             id="g1029">
            <path
               d="m 170.08086,3.9851 v 20.3766 c 0,2.20094 1.78416,3.9851 3.9851,3.9851 h 48.72341 c 2.20094,0 3.98511,-1.78416 3.98511,-3.9851 V 3.9851 C 226.77448,1.78416 224.99031,0 222.78937,0 h -48.72341 c -2.20094,0 -3.9851,1.78416 -3.9851,3.9851 z"
               style="fill:#ffffff;fill-opacity:1;fill-rule:nonzero;stroke:#000000;stroke-width:0.3985;stroke-linecap:butt;stroke-linejoin:miter;stroke-miterlimit:10;stroke-dasharray:none;stroke-opacity:1"
               id="path1031" />
          </g>
          <g
             id="g1033">
            <g
               id="g1035">
              <g
                 id="g1037"
                 transform="translate(2.14474,-2.14474)">
                <path
                   d="m 340.16171,3.9851 v 20.3766 c 0,2.20094 1.78417,3.9851 3.98511,3.9851 h 48.7234 c 2.20095,0 3.98511,-1.78416 3.98511,-3.9851 V 3.9851 C 396.85533,1.78416 395.07117,0 392.87022,0 h -48.7234 c -2.20094,0 -3.98511,1.78416 -3.98511,3.9851 z"
                   style="fill:#808080;fill-opacity:0.25;fill-rule:nonzero;stroke:none"
                   id="path1039" />
              </g>
            </g>
          </g>
          <g
             id="g1041">
            <path
               d="m 340.16171,3.9851 v 20.3766 c 0,2.20094 1.78417,3.9851 3.98511,3.9851 h 48.7234 c 2.20095,0 3.98511,-1.78416 3.98511,-3.9851 V 3.9851 C 396.85533,1.78416 395.07117,0 392.87022,0 h -48.7234 c -2.20094,0 -3.98511,1.78416 -3.98511,3.9851 z"
               style="fill:#ffffff;fill-opacity:1;fill-rule:nonzero;stroke:#000000;stroke-width:0.3985;stroke-linecap:butt;stroke-linejoin:miter;stroke-miterlimit:10;stroke-dasharray:none;stroke-opacity:1"
               id="path1043" />
          </g>
          <g
             id="g1133">
            <g
               id="g1135"
               transform="translate(277.653,-2.214)">
              <g
                 id="g1137">
                <g
                   id="g1139"
                   transform="translate(-309.32,-233.547)">
                  <text
                     transform="matrix(1,0,0,-1,309.32,233.547)"
                     style="font-variant:normal;font-weight:normal;font-size:9.9626px;font-family:CMSY10;-inkscape-font-specification:CMSY10;writing-mode:lr-tb;fill:#000000;fill-opacity:1;fill-rule:nonzero;stroke:none"
                     id="text1143"><tspan
                       x="0 4.4313645 8.852766"
                       y="0"
                       sodipodi:role="line"
                       id="tspan1141">···</tspan></text>
                  <g
                     id="g1145"
                     transform="translate(309.32,233.547)" />
                </g>
              </g>
              <g
                 id="g1147"
                 transform="translate(-277.653,2.214)" />
            </g>
          </g>
          <g
             id="g1149">
            <g
               id="g1151"
               transform="translate(277.653,-115.599)">
              <g
                 id="g1153">
                <g
                   id="g1155"
                   transform="translate(-309.32,-120.162)">
                  <text
                     transform="matrix(1,0,0,-1,309.32,120.162)"
                     style="font-variant:normal;font-weight:normal;font-size:9.9626px;font-family:CMSY10;-inkscape-font-specification:CMSY10;writing-mode:lr-tb;fill:#000000;fill-opacity:1;fill-rule:nonzero;stroke:none"
                     id="text1159"><tspan
                       x="0 4.4313645 8.852766"
                       y="0"
                       sodipodi:role="line"
                       id="tspan1157">···</tspan></text>
                  <g
                     id="g1161"
                     transform="translate(309.32,120.162)" />
                </g>
              </g>
              <g
                 id="g1163"
                 transform="translate(-277.653,115.599)" />
            </g>
          </g>
          <g
             id="g1165">
            <g
               id="g1167">
              <g
                 id="g1169"
                 transform="translate(2.14474,-2.14474)">
                <path
                   d="m 0,-222.78937 v 20.3766 c 0,2.20095 1.78416,3.98511 3.9851,3.98511 h 388.88512 c 2.20095,0 3.98511,-1.78416 3.98511,-3.98511 v -20.3766 c 0,-2.20094 -1.78416,-3.98511 -3.98511,-3.98511 H 3.9851 c -2.20094,0 -3.9851,1.78417 -3.9851,3.98511 z"
                   style="fill:#808080;fill-opacity:0.25;fill-rule:nonzero;stroke:none"
                   id="path1171" />
              </g>
            </g>
          </g>
          <g
             id="g1173">
            <path
               d="m 0,-222.78937 v 20.3766 c 0,2.20095 1.78416,3.98511 3.9851,3.98511 h 388.88512 c 2.20095,0 3.98511,-1.78416 3.98511,-3.98511 v -20.3766 c 0,-2.20094 -1.78416,-3.98511 -3.98511,-3.98511 H 3.9851 c -2.20094,0 -3.9851,1.78417 -3.9851,3.98511 z"
               style="fill:#ffffff;fill-opacity:1;fill-rule:nonzero;stroke:#000000;stroke-width:0.3985;stroke-linecap:butt;stroke-linejoin:miter;stroke-miterlimit:10;stroke-dasharray:none;stroke-opacity:1"
               id="path1175" />
          </g>
          <g
             transform="translate(81.022928,38.106291)"
             id="g1177">
            <g
               id="g1179"
               transform="translate(160.188,-217.5)">
              <g
                 id="g1181">
                <g
                   id="g1183"
                   transform="translate(-191.855,-18.261)">
                  <g
                     id="g1189"
                     transform="translate(191.855,18.261)" />
                  <text
                     transform="scale(1,-1)"
                     id="text3060"
                     y="21.100523"
                     x="94.041595"
                     style="font-style:normal;font-weight:normal;font-size:17.2182px;line-height:1.25;font-family:sans-serif;fill:#000000;fill-opacity:1;stroke:none;stroke-width:1.29137"
                     xml:space="preserve"><tspan
                       style="font-size:17.2182px;stroke-width:1.29137"
                       y="21.100523"
                       x="94.041595"
                       id="tspan3058"
                       sodipodi:role="line">Interconnect</tspan></text>
                </g>
              </g>
              <g
                 id="g1191"
                 transform="translate(-160.188,217.5)" />
            </g>
          </g>
          <path
             d="M 28.3468,0 V -28.3468"
             style="fill:none;stroke:#000000;stroke-width:0.3985;stroke-linecap:butt;stroke-linejoin:miter;stroke-miterlimit:10;stroke-dasharray:none;stroke-opacity:1"
             id="path1193" />
          <path
             d="m 28.3468,-170.08086 v -28.3468"
             style="fill:none;stroke:#000000;stroke-width:0.3985;stroke-linecap:butt;stroke-linejoin:miter;stroke-miterlimit:10;stroke-dasharray:none;stroke-opacity:1"
             id="path1195" />
          <path
             d="M 113.38724,0 V -28.3468"
             style="fill:none;stroke:#000000;stroke-width:0.3985;stroke-linecap:butt;stroke-linejoin:miter;stroke-miterlimit:10;stroke-dasharray:none;stroke-opacity:1"
             id="path1197" />
          <path
             d="m 113.38724,-170.08086 v -28.3468"
             style="fill:none;stroke:#000000;stroke-width:0.3985;stroke-linecap:butt;stroke-linejoin:miter;stroke-miterlimit:10;stroke-dasharray:none;stroke-opacity:1"
             id="path1199" />
          <path
             d="M 198.42766,0 V -28.3468"
             style="fill:none;stroke:#000000;stroke-width:0.3985;stroke-linecap:butt;stroke-linejoin:miter;stroke-miterlimit:10;stroke-dasharray:none;stroke-opacity:1"
             id="path1201" />
          <path
             d="m 198.42766,-170.08086 v -28.3468"
             style="fill:none;stroke:#000000;stroke-width:0.3985;stroke-linecap:butt;stroke-linejoin:miter;stroke-miterlimit:10;stroke-dasharray:none;stroke-opacity:1"
             id="path1203" />
          <path
             d="M 368.50851,0 V -28.3468"
             style="fill:none;stroke:#000000;stroke-width:0.3985;stroke-linecap:butt;stroke-linejoin:miter;stroke-miterlimit:10;stroke-dasharray:none;stroke-opacity:1"
             id="path1205" />
          <path
             d="m 368.50851,-170.08086 v -28.3468"
             style="fill:none;stroke:#000000;stroke-width:0.3985;stroke-linecap:butt;stroke-linejoin:miter;stroke-miterlimit:10;stroke-dasharray:none;stroke-opacity:1"
             id="path1207" />
          <g
             id="g1209">
            <g
               id="g1211"
               transform="translate(0,-232.44)">
              <g
                 id="g1213" />
              <g
                 id="g1215"
                 transform="translate(0,232.44)" />
            </g>
          </g>
          <g
             id="g1217">
            <g
               id="g1219"
               transform="translate(-28.346)">
              <g
                 id="g1221" />
              <g
                 id="g1223"
                 transform="translate(28.346)" />
            </g>
          </g>
          <g
             id="g1225">
            <g
               id="g1227"
               transform="translate(425.197)">
              <g
                 id="g1229" />
              <g
                 id="g1231"
                 transform="translate(-425.197)" />
            </g>
          </g>
          <g
             id="g1235">
            <path
               d="m 14.17339,-99.21382 v 21.2601 h 368.50853 v -21.2601 z"
               style="fill:#fffee6;fill-opacity:1;fill-rule:nonzero;stroke:#000000;stroke-width:0.3985;stroke-linecap:butt;stroke-linejoin:miter;stroke-miterlimit:10;stroke-dasharray:none;stroke-opacity:1"
               id="path1237" />
          </g>
          <g
             id="g1239">
            <path
               d="m 14.17339,-127.56062 v 21.2601 h 113.38723 v -21.2601 z"
               style="fill:#fffee6;fill-opacity:1;fill-rule:nonzero;stroke:#000000;stroke-width:0.3985;stroke-linecap:butt;stroke-linejoin:miter;stroke-miterlimit:10;stroke-dasharray:none;stroke-opacity:1"
               id="path1241" />
          </g>
          <g
             id="g1243">
            <path
               d="m 99.21382,-155.90744 v 21.2601 h 283.4681 v -21.2601 z"
               style="fill:#fffee6;fill-opacity:1;fill-rule:nonzero;stroke:#000000;stroke-width:0.3985;stroke-linecap:butt;stroke-linejoin:miter;stroke-miterlimit:10;stroke-dasharray:none;stroke-opacity:1"
               id="path1245" />
          </g>
          <text
             transform="scale(1,-1)"
             id="text3064"
             y="56.056751"
             x="8.1456528"
             style="font-style:normal;font-weight:normal;font-size:17.2182px;line-height:1.25;font-family:sans-serif;fill:#000000;fill-opacity:1;stroke:none;stroke-width:1.29137"
             xml:space="preserve"><tspan
               style="font-size:17.2182px;stroke-width:1.29137"
               y="56.056751"
               x="8.1456528"
               id="tspan3062"
               sodipodi:role="line">local</tspan></text>
          <text
             xml:space="preserve"
             style="font-style:normal;font-weight:normal;font-size:17.2182px;line-height:1.25;font-family:sans-serif;fill:#000000;fill-opacity:1;stroke:none;stroke-width:1.29137"
             x="93.186089"
             y="56.05677"
             id="text3130"
             transform="scale(1,-1)"><tspan
               sodipodi:role="line"
               id="tspan3128"
               x="93.186089"
               y="56.05677"
               style="font-size:17.2182px;stroke-width:1.29137">local</tspan></text>
          <text
             transform="scale(1,-1)"
             id="text3134"
             y="56.056767"
             x="178.22653"
             style="font-style:normal;font-weight:normal;font-size:17.2182px;line-height:1.25;font-family:sans-serif;fill:#000000;fill-opacity:1;stroke:none;stroke-width:1.29137"
             xml:space="preserve"><tspan
               style="font-size:17.2182px;stroke-width:1.29137"
               y="56.056767"
               x="178.22653"
               id="tspan3132"
               sodipodi:role="line">local</tspan></text>
          <text
             xml:space="preserve"
             style="font-style:normal;font-weight:normal;font-size:17.2182px;line-height:1.25;font-family:sans-serif;fill:#000000;fill-opacity:1;stroke:none;stroke-width:1.29137"
             x="348.30734"
             y="56.05677"
             id="text3138"
             transform="scale(1,-1)"><tspan
               sodipodi:role="line"
               id="tspan3136"
               x="348.30734"
               y="56.05677"
               style="font-size:17.2182px;stroke-width:1.29137">local</tspan></text>
          <text
             transform="scale(1,-1)"
             id="text3142"
             y="-11.152859"
             x="18.91148"
             style="font-style:normal;font-weight:normal;font-size:17.2182px;line-height:1.25;font-family:sans-serif;fill:#000000;fill-opacity:1;stroke:none;stroke-width:1.29137"
             xml:space="preserve"><tspan
               style="font-size:17.2182px;stroke-width:1.29137"
               y="-11.152859"
               x="18.91148"
               id="tspan3140"
               sodipodi:role="line">p<tspan
   id="tspan3144"
   style="font-size:65%;baseline-shift:sub">0</tspan></tspan></text>
          <text
             xml:space="preserve"
             style="font-style:normal;font-weight:normal;font-size:17.2182px;line-height:1.25;font-family:sans-serif;fill:#000000;fill-opacity:1;stroke:none;stroke-width:1.29137"
             x="104.09672"
             y="-11.142559"
             id="text3150"
             transform="scale(1,-1)"><tspan
               sodipodi:role="line"
               id="tspan3148"
               x="104.09672"
               y="-11.142559"
               style="font-size:17.2182px;stroke-width:1.29137">p<tspan
   style="font-size:65%;baseline-shift:sub"
   id="tspan3146">1</tspan></tspan></text>
          <text
             transform="scale(1,-1)"
             id="text3156"
             y="-11.142559"
             x="189.18088"
             style="font-style:normal;font-weight:normal;font-size:17.2182px;line-height:1.25;font-family:sans-serif;fill:#000000;fill-opacity:1;stroke:none;stroke-width:1.29137"
             xml:space="preserve"><tspan
               style="font-size:17.2182px;stroke-width:1.29137"
               y="-11.142559"
               x="189.18088"
               id="tspan3154"
               sodipodi:role="line">p<tspan
   id="tspan3152"
   style="font-size:65%;baseline-shift:sub">2</tspan></tspan></text>
          <text
             xml:space="preserve"
             style="font-style:normal;font-weight:normal;font-size:17.2182px;line-height:1.25;font-family:sans-serif;fill:#000000;fill-opacity:1;stroke:none;stroke-width:1.29137"
             x="353.64395"
             y="-11.142559"
             id="text3162"
             transform="scale(1,-1)"><tspan
               sodipodi:role="line"
               id="tspan3160"
               x="353.64395"
               y="-11.142559"
               style="font-size:17.2182px;stroke-width:1.29137">p<tspan
   style="font-size:65%;baseline-shift:sub"
   id="tspan3158">n-1</tspan></tspan></text>
          <text
             xml:space="preserve"
             style="font-style:normal;font-weight:normal;font-size:17.2182px;line-height:1.25;font-family:sans-serif;fill:#000000;fill-opacity:1;stroke:none;stroke-width:1.29137"
             x="190.28285"
             y="91.604309"
             id="text3168"
             transform="scale(1,-1)"><tspan
               sodipodi:role="line"
               id="tspan3166"
               x="190.28285"
               y="91.604309"
               style="font-size:17.2182px;stroke-width:1.29137">s<tspan
   style="font-size:65%;baseline-shift:sub"
   id="tspan3164">0</tspan></tspan></text>
          <text
             transform="scale(1,-1)"
             id="text3210"
             y="120.03035"
             x="62.867016"
             style="font-style:normal;font-weight:normal;font-size:17.2182px;line-height:1.25;font-family:sans-serif;fill:#000000;fill-opacity:1;stroke:none;stroke-width:1.29137"
             xml:space="preserve"><tspan
               style="font-size:17.2182px;stroke-width:1.29137"
               y="120.03035"
               x="62.867016"
               id="tspan3208"
               sodipodi:role="line">s<tspan
   id="tspan3206"
   style="font-size:65%;baseline-shift:sub">1</tspan></tspan></text>
          <text
             xml:space="preserve"
             style="font-style:normal;font-weight:normal;font-size:17.2182px;line-height:1.25;font-family:sans-serif;fill:#000000;fill-opacity:1;stroke:none;stroke-width:1.29137"
             x="232.99159"
             y="148.37717"
             id="text3216"
             transform="scale(1,-1)"><tspan
               sodipodi:role="line"
               id="tspan3214"
               x="232.99159"
               y="148.37717"
               style="font-size:17.2182px;stroke-width:1.29137">s<tspan
   style="font-size:65%;baseline-shift:sub"
   id="tspan3212">2</tspan></tspan></text>
        </g>
      </g>
    </g>
  </g>
</svg>
